<svg xmlns="http://www.w3.org/2000/svg" xmlns:xlink="http://www.w3.org/1999/xlink" width="500" zoomAndPan="magnify" viewBox="0 0 375 374.999991" height="500" preserveAspectRatio="xMidYMid meet" version="1.0"><defs><g/><clipPath id="id1"><path d="M 132.722656 99.144531 L 242.109375 99.144531 L 242.109375 225.144531 L 132.722656 225.144531 Z M 132.722656 99.144531 " clip-rule="nonzero"/></clipPath></defs><path fill="rgb(33.329773%, 65.098572%, 59.999084%)" d="M 238.039062 131.347656 L 188.695312 102.796875 L 187.359375 102.023438 L 186.023438 102.796875 L 140.386719 129.199219 L 136.679688 131.347656 L 135.34375 132.117188 L 135.34375 156.222656 L 139.769531 152.355469 C 142.144531 150.285156 145.183594 149.144531 148.324219 149.144531 C 155.390625 149.144531 161.242188 154.902344 161.363281 161.984375 L 161.363281 162.019531 L 161.367188 162.050781 C 161.367188 169.230469 167.191406 175.066406 174.347656 175.066406 C 181.507812 175.066406 187.328125 169.230469 187.328125 162.054688 C 187.328125 159.433594 188.105469 156.902344 189.574219 154.734375 C 192.011719 151.132812 196.050781 148.984375 200.371094 148.984375 C 207.566406 148.984375 213.414062 154.847656 213.414062 162.054688 C 213.414062 169.230469 219.238281 175.066406 226.398438 175.066406 C 233.554688 175.066406 239.378906 169.230469 239.378906 162.054688 L 239.378906 132.121094 Z M 238.039062 131.347656 " fill-opacity="1" fill-rule="nonzero"/><path fill="rgb(14.118958%, 33.729553%, 30.589294%)" d="M 148.324219 150.984375 C 154.503906 150.984375 159.535156 156.023438 159.535156 162.21875 C 159.535156 162.246094 159.535156 162.273438 159.539062 162.316406 C 159.605469 166.21875 161.175781 169.886719 163.964844 172.632812 C 166.757812 175.386719 170.441406 176.902344 174.347656 176.902344 C 177.917969 176.902344 181.371094 175.605469 184.066406 173.25 L 185.558594 171.949219 L 185.558594 219.324219 L 137.113281 191.289062 L 137.113281 162.21875 C 137.113281 156.023438 142.144531 150.984375 148.324219 150.984375 Z M 148.324219 150.984375 " fill-opacity="1" fill-rule="nonzero"/><path fill="rgb(66.268921%, 87.449646%, 84.709167%)" d="M 200.371094 150.824219 C 206.550781 150.824219 211.582031 155.863281 211.582031 162.058594 C 211.582031 170.242188 218.226562 176.902344 226.394531 176.902344 C 229.964844 176.902344 233.417969 175.605469 236.113281 173.253906 L 237.605469 171.953125 L 237.605469 191.292969 L 189.164062 219.324219 L 189.164062 162.058594 C 189.164062 155.863281 194.1875 150.824219 200.371094 150.824219 Z M 200.371094 150.824219 " fill-opacity="1" fill-rule="nonzero"/><g clip-path="url(#id1)"><path fill="rgb(4.708862%, 5.099487%, 10.5896%)" d="M 186.007812 99.640625 L 133.957031 129.753906 C 133.292969 130.140625 132.832031 130.785156 132.671875 131.519531 C 132.632812 131.707031 132.609375 131.90625 132.609375 132.101562 L 132.609375 192.335938 C 132.609375 193.304688 133.125 194.195312 133.957031 194.679688 L 186.007812 224.796875 C 186.019531 224.800781 186.027344 224.808594 186.039062 224.816406 C 186.0625 224.828125 186.089844 224.839844 186.113281 224.851562 C 186.160156 224.878906 186.207031 224.902344 186.257812 224.921875 C 186.28125 224.933594 186.300781 224.945312 186.324219 224.953125 C 186.390625 224.984375 186.457031 225.003906 186.523438 225.027344 C 186.546875 225.035156 186.574219 225.042969 186.601562 225.050781 C 186.660156 225.066406 186.714844 225.082031 186.769531 225.09375 C 186.789062 225.097656 186.808594 225.105469 186.828125 225.105469 C 186.90625 225.121094 186.980469 225.132812 187.054688 225.140625 C 187.074219 225.144531 187.09375 225.144531 187.117188 225.144531 C 187.195312 225.152344 187.277344 225.15625 187.359375 225.15625 C 187.4375 225.15625 187.519531 225.152344 187.601562 225.144531 C 187.621094 225.144531 187.640625 225.144531 187.664062 225.140625 C 187.738281 225.132812 187.8125 225.121094 187.886719 225.105469 C 187.90625 225.101562 187.925781 225.097656 187.945312 225.09375 C 188.003906 225.082031 188.054688 225.066406 188.113281 225.050781 C 188.140625 225.042969 188.167969 225.035156 188.191406 225.027344 C 188.261719 225.003906 188.328125 224.980469 188.390625 224.953125 C 188.414062 224.945312 188.433594 224.933594 188.457031 224.921875 C 188.507812 224.902344 188.558594 224.878906 188.601562 224.851562 C 188.628906 224.839844 188.652344 224.828125 188.675781 224.816406 C 188.683594 224.808594 188.699219 224.804688 188.707031 224.796875 L 240.761719 194.679688 C 241.59375 194.195312 242.109375 193.304688 242.109375 192.335938 L 242.109375 132.105469 C 242.109375 131.136719 241.59375 130.242188 240.761719 129.757812 L 188.710938 99.640625 C 187.875 99.15625 186.84375 99.15625 186.007812 99.640625 Z M 138.011719 190.769531 L 138.011719 162.21875 C 138.011719 156.519531 142.636719 151.886719 148.320312 151.886719 C 154.003906 151.886719 158.628906 156.519531 158.628906 162.21875 C 158.628906 162.257812 158.628906 162.296875 158.632812 162.332031 C 158.777344 170.890625 165.773438 177.804688 174.347656 177.804688 C 178.289062 177.804688 181.894531 176.34375 184.652344 173.933594 L 184.652344 217.757812 Z M 236.707031 173.933594 L 236.707031 190.769531 L 190.0625 217.757812 L 190.0625 162.058594 C 190.0625 156.359375 194.6875 151.726562 200.371094 151.726562 C 206.054688 151.726562 210.679688 156.359375 210.679688 162.058594 C 210.679688 170.742188 217.726562 177.808594 226.394531 177.808594 C 230.335938 177.804688 233.941406 176.34375 236.707031 173.933594 Z M 236.707031 133.667969 L 236.707031 162.058594 C 236.707031 167.753906 232.082031 172.386719 226.398438 172.386719 C 220.714844 172.386719 216.089844 167.753906 216.089844 162.058594 C 216.089844 153.371094 209.039062 146.308594 200.371094 146.308594 C 194.96875 146.308594 190.191406 149.058594 187.359375 153.234375 C 185.652344 155.753906 184.65625 158.792969 184.65625 162.058594 C 184.65625 167.753906 180.03125 172.386719 174.347656 172.386719 C 168.664062 172.386719 164.039062 167.753906 164.039062 162.058594 C 164.039062 162.019531 164.039062 161.980469 164.039062 161.945312 C 163.890625 153.386719 156.898438 146.46875 148.324219 146.46875 C 144.382812 146.46875 140.777344 147.933594 138.015625 150.34375 L 138.015625 133.667969 L 141.726562 131.519531 L 187.359375 105.113281 Z M 236.707031 133.667969 " fill-opacity="1" fill-rule="nonzero"/></g><g fill="rgb(19.999695%, 19.999695%, 19.999695%)" fill-opacity="1"><g transform="translate(103.403231, 255.207463)"><g><path d="M 14.136719 -19.496094 L 14.136719 -11.664062 L 6.207031 -11.664062 L 6.207031 -19.496094 L 1.917969 -19.496094 L 1.917969 0 L 6.207031 0 L 6.207031 -7.863281 L 14.136719 -7.863281 L 14.136719 0 L 18.390625 0 L 18.390625 -19.496094 Z M 14.136719 -19.496094 "/></g></g></g><g fill="rgb(19.999695%, 19.999695%, 19.999695%)" fill-opacity="1"><g transform="translate(123.222162, 255.207463)"><g><path d="M 7.929688 0.261719 C 11.566406 0.261719 14.65625 -1.882812 14.65625 -5.523438 C 14.65625 -12.738281 5.6875 -10.949219 5.6875 -14.328125 C 5.6875 -15.433594 6.53125 -15.953125 7.570312 -15.953125 C 8.675781 -15.953125 9.78125 -15.335938 10.753906 -14.265625 L 13.613281 -16.996094 C 12.183594 -18.652344 10.007812 -19.757812 7.605469 -19.757812 C 4.515625 -19.757812 1.363281 -17.902344 1.363281 -14.003906 C 1.363281 -7.375 10.367188 -8.96875 10.367188 -5.554688 C 10.367188 -4.484375 9.457031 -3.769531 7.960938 -3.769531 C 6.171875 -3.769531 4.777344 -4.777344 4.0625 -6.304688 L 0.519531 -4.09375 C 1.789062 -1.65625 4.515625 0.261719 7.929688 0.261719 Z M 7.929688 0.261719 "/></g></g></g><g fill="rgb(19.999695%, 19.999695%, 19.999695%)" fill-opacity="1"><g transform="translate(138.102567, 255.207463)"><g><path d="M 13.84375 0 L 18.425781 0 L 11.40625 -19.496094 L 6.597656 -19.496094 L -0.421875 0 L 4.160156 0 L 5.363281 -3.671875 L 12.640625 -3.671875 Z M 6.5 -7.246094 L 9 -14.980469 L 11.503906 -7.246094 Z M 6.5 -7.246094 "/></g></g></g><g fill="rgb(19.999695%, 19.999695%, 19.999695%)" fill-opacity="1"><g transform="translate(155.582197, 255.207463)"><g><path d="M 15.921875 -19.496094 L 15.921875 -6.597656 L 6.335938 -19.496094 L 1.917969 -19.496094 L 1.917969 0 L 6.207031 0 L 6.207031 -12.933594 L 15.757812 0 L 20.179688 0 L 20.179688 -19.496094 Z M 15.921875 -19.496094 "/></g></g></g><g fill="rgb(19.999695%, 19.999695%, 19.999695%)" fill-opacity="1"><g transform="translate(177.188104, 255.207463)"><g><path d="M 13.84375 0 L 18.425781 0 L 11.40625 -19.496094 L 6.597656 -19.496094 L -0.421875 0 L 4.160156 0 L 5.363281 -3.671875 L 12.640625 -3.671875 Z M 6.5 -7.246094 L 9 -14.980469 L 11.503906 -7.246094 Z M 6.5 -7.246094 "/></g></g></g><g fill="rgb(19.999695%, 19.999695%, 19.999695%)" fill-opacity="1"><g transform="translate(194.66774, 255.207463)"><g><path d="M 6.207031 -3.800781 L 6.207031 -19.496094 L 1.917969 -19.496094 L 1.917969 0 L 12.671875 0 L 12.671875 -3.800781 Z M 6.207031 -3.800781 "/></g></g></g><g fill="rgb(19.999695%, 19.999695%, 19.999695%)" fill-opacity="1"><g transform="translate(206.883941, 255.207463)"><g><path d="M 17.515625 -19.496094 L 12.738281 -19.496094 L 8.578125 -12.898438 L 4.417969 -19.496094 L -0.421875 -19.496094 L 6.433594 -9.164062 L 6.433594 0 L 10.722656 0 L 10.722656 -9.195312 Z M 17.515625 -19.496094 "/></g></g></g><g fill="rgb(19.999695%, 19.999695%, 19.999695%)" fill-opacity="1"><g transform="translate(223.486342, 255.207463)"><g><path d="M 15.695312 -19.496094 L 1.558594 -19.496094 L 1.558594 -15.695312 L 9.035156 -15.695312 L 0.746094 0 L 15.695312 0 L 15.695312 -3.800781 L 7.472656 -3.800781 Z M 15.695312 -19.496094 "/></g></g></g><g fill="rgb(19.999695%, 19.999695%, 19.999695%)" fill-opacity="1"><g transform="translate(239.601384, 255.207463)"><g><path d="M 13.808594 -15.726562 L 13.808594 -19.496094 L 2.078125 -19.496094 L 2.078125 0 L 13.808594 0 L 13.808594 -3.769531 L 6.367188 -3.769531 L 6.367188 -7.863281 L 12.738281 -7.863281 L 12.738281 -11.632812 L 6.367188 -11.632812 L 6.367188 -15.726562 Z M 13.808594 -15.726562 "/></g></g></g><g fill="rgb(19.999695%, 19.999695%, 19.999695%)" fill-opacity="1"><g transform="translate(254.221875, 255.207463)"><g><path d="M 12.085938 -8.027344 C 14.394531 -8.707031 16.019531 -10.851562 16.019531 -13.515625 C 16.019531 -16.832031 13.550781 -19.496094 10.203125 -19.496094 L 1.917969 -19.496094 L 1.917969 0 L 6.207031 0 L 6.207031 -7.539062 L 7.929688 -7.539062 L 12.738281 0 L 17.546875 0 Z M 9.554688 -11.082031 L 6.207031 -11.082031 L 6.207031 -15.695312 L 9.554688 -15.695312 C 10.917969 -15.695312 11.925781 -14.71875 11.925781 -13.386719 C 11.925781 -12.023438 10.917969 -11.082031 9.554688 -11.082031 Z M 9.554688 -11.082031 "/></g></g></g></svg>