<svg xmlns="http://www.w3.org/2000/svg" xmlns:xlink="http://www.w3.org/1999/xlink" width="200" zoomAndPan="magnify" viewBox="0 0 150 149.999998" height="200" preserveAspectRatio="xMidYMid meet" version="1.0"><defs><g/><clipPath id="id1"><path d="M 38.089844 17.230469 L 111.589844 17.230469 L 111.589844 101.980469 L 38.089844 101.980469 Z M 38.089844 17.230469 " clip-rule="nonzero"/></clipPath></defs><path fill="rgb(33.329773%, 65.098572%, 59.999084%)" d="M 109.503906 38.890625 L 76.042969 19.691406 L 75.140625 19.171875 L 74.234375 19.691406 L 43.289062 37.449219 L 40.773438 38.890625 L 39.867188 39.410156 L 39.867188 55.621094 L 42.867188 53.023438 C 44.476562 51.628906 46.539062 50.863281 48.667969 50.863281 C 53.460938 50.863281 57.429688 54.734375 57.511719 59.5 L 57.511719 59.519531 L 57.515625 59.542969 C 57.515625 64.371094 61.460938 68.292969 66.316406 68.292969 C 71.171875 68.292969 75.117188 64.371094 75.117188 59.546875 C 75.117188 57.78125 75.644531 56.078125 76.640625 54.621094 C 78.292969 52.199219 81.03125 50.753906 83.960938 50.753906 C 88.839844 50.753906 92.808594 54.699219 92.808594 59.546875 C 92.808594 64.371094 96.753906 68.292969 101.609375 68.292969 C 106.464844 68.292969 110.410156 64.371094 110.410156 59.546875 L 110.410156 39.414062 Z M 109.503906 38.890625 " fill-opacity="1" fill-rule="nonzero"/><path fill="rgb(14.118958%, 33.729553%, 30.589294%)" d="M 48.667969 52.097656 C 52.859375 52.097656 56.269531 55.488281 56.269531 59.65625 C 56.269531 59.671875 56.269531 59.691406 56.273438 59.71875 C 56.316406 62.347656 57.382812 64.8125 59.277344 66.660156 C 61.167969 68.511719 63.667969 69.53125 66.316406 69.53125 C 68.738281 69.53125 71.078125 68.65625 72.90625 67.074219 L 73.917969 66.199219 L 73.917969 98.058594 L 41.066406 79.207031 L 41.066406 59.65625 C 41.066406 55.488281 44.476562 52.097656 48.667969 52.097656 Z M 48.667969 52.097656 " fill-opacity="1" fill-rule="nonzero"/><path fill="rgb(66.268921%, 87.449646%, 84.709167%)" d="M 83.960938 51.992188 C 88.152344 51.992188 91.5625 55.378906 91.5625 59.546875 C 91.5625 65.050781 96.070312 69.53125 101.609375 69.53125 C 104.027344 69.53125 106.367188 68.660156 108.195312 67.078125 L 109.210938 66.199219 L 109.210938 79.210938 L 76.359375 98.058594 L 76.359375 59.546875 C 76.359375 55.378906 79.769531 51.992188 83.960938 51.992188 Z M 83.960938 51.992188 " fill-opacity="1" fill-rule="nonzero"/><g clip-path="url(#id1)"><path fill="rgb(4.708862%, 5.099487%, 10.5896%)" d="M 74.222656 17.566406 L 38.929688 37.820312 C 38.476562 38.082031 38.164062 38.511719 38.054688 39.007812 C 38.027344 39.136719 38.011719 39.269531 38.011719 39.398438 L 38.011719 79.910156 C 38.011719 80.5625 38.363281 81.160156 38.929688 81.488281 L 74.222656 101.742188 C 74.230469 101.746094 74.234375 101.75 74.246094 101.753906 C 74.261719 101.761719 74.277344 101.769531 74.292969 101.78125 C 74.324219 101.796875 74.359375 101.8125 74.390625 101.828125 C 74.40625 101.832031 74.421875 101.839844 74.4375 101.847656 C 74.480469 101.867188 74.527344 101.882812 74.570312 101.894531 C 74.589844 101.902344 74.605469 101.90625 74.625 101.910156 C 74.664062 101.921875 74.699219 101.933594 74.738281 101.941406 C 74.753906 101.945312 74.765625 101.949219 74.78125 101.949219 C 74.828125 101.960938 74.878906 101.96875 74.929688 101.972656 C 74.945312 101.972656 74.960938 101.976562 74.972656 101.976562 C 75.027344 101.980469 75.082031 101.984375 75.136719 101.984375 C 75.191406 101.984375 75.246094 101.980469 75.300781 101.976562 C 75.316406 101.972656 75.328125 101.972656 75.34375 101.972656 C 75.394531 101.96875 75.445312 101.957031 75.496094 101.949219 C 75.511719 101.945312 75.523438 101.941406 75.535156 101.941406 C 75.574219 101.933594 75.613281 101.925781 75.648438 101.910156 C 75.667969 101.90625 75.6875 101.902344 75.703125 101.894531 C 75.75 101.882812 75.792969 101.863281 75.839844 101.847656 C 75.855469 101.839844 75.867188 101.832031 75.882812 101.828125 C 75.917969 101.8125 75.949219 101.796875 75.980469 101.78125 C 76 101.769531 76.015625 101.761719 76.03125 101.753906 C 76.039062 101.75 76.046875 101.746094 76.054688 101.742188 L 111.347656 81.488281 C 111.914062 81.160156 112.265625 80.5625 112.265625 79.910156 L 112.265625 39.402344 C 112.265625 38.75 111.914062 38.148438 111.347656 37.824219 L 76.054688 17.566406 C 75.488281 17.242188 74.789062 17.242188 74.222656 17.566406 Z M 41.679688 78.859375 L 41.679688 59.65625 C 41.679688 55.824219 44.8125 52.707031 48.667969 52.707031 C 52.523438 52.707031 55.65625 55.824219 55.65625 59.65625 C 55.65625 59.679688 55.65625 59.707031 55.660156 59.730469 C 55.757812 65.488281 60.5 70.136719 66.3125 70.136719 C 68.988281 70.136719 71.433594 69.15625 73.304688 67.535156 L 73.304688 97.007812 Z M 108.597656 67.535156 L 108.597656 78.859375 L 76.972656 97.007812 L 76.972656 59.546875 C 76.972656 55.714844 80.105469 52.597656 83.960938 52.597656 C 87.816406 52.597656 90.949219 55.714844 90.949219 59.546875 C 90.949219 65.386719 95.730469 70.140625 101.609375 70.140625 C 104.28125 70.136719 106.726562 69.15625 108.597656 67.535156 Z M 108.597656 40.453125 L 108.597656 59.546875 C 108.597656 63.378906 105.464844 66.496094 101.609375 66.496094 C 97.753906 66.496094 94.621094 63.378906 94.621094 59.546875 C 94.621094 53.707031 89.839844 48.953125 83.960938 48.953125 C 80.296875 48.953125 77.058594 50.804688 75.140625 53.613281 C 73.980469 55.308594 73.304688 57.351562 73.304688 59.546875 C 73.304688 63.378906 70.171875 66.496094 66.316406 66.496094 C 62.460938 66.496094 59.328125 63.378906 59.328125 59.546875 C 59.328125 59.519531 59.328125 59.496094 59.324219 59.46875 C 59.226562 53.714844 54.484375 49.0625 48.667969 49.0625 C 45.996094 49.0625 43.550781 50.046875 41.679688 51.667969 L 41.679688 40.453125 L 44.195312 39.007812 L 75.136719 21.25 Z M 108.597656 40.453125 " fill-opacity="1" fill-rule="nonzero"/></g><g fill="rgb(100%, 100%, 100%)" fill-opacity="1"><g transform="translate(18.333828, 122.388849)"><g><path d="M 9.523438 -13.136719 L 9.523438 -7.859375 L 4.183594 -7.859375 L 4.183594 -13.136719 L 1.292969 -13.136719 L 1.292969 0 L 4.183594 0 L 4.183594 -5.296875 L 9.523438 -5.296875 L 9.523438 0 L 12.390625 0 L 12.390625 -13.136719 Z M 9.523438 -13.136719 "/></g></g></g><g fill="rgb(100%, 100%, 100%)" fill-opacity="1"><g transform="translate(31.68824, 122.388849)"><g><path d="M 5.34375 0.175781 C 7.792969 0.175781 9.875 -1.269531 9.875 -3.722656 C 9.875 -8.582031 3.832031 -7.378906 3.832031 -9.65625 C 3.832031 -10.398438 4.402344 -10.75 5.101562 -10.75 C 5.847656 -10.75 6.589844 -10.335938 7.246094 -9.613281 L 9.175781 -11.449219 C 8.210938 -12.566406 6.742188 -13.3125 5.125 -13.3125 C 3.042969 -13.3125 0.917969 -12.0625 0.917969 -9.4375 C 0.917969 -4.96875 6.984375 -6.042969 6.984375 -3.742188 C 6.984375 -3.023438 6.371094 -2.539062 5.363281 -2.539062 C 4.160156 -2.539062 3.21875 -3.21875 2.738281 -4.246094 L 0.351562 -2.757812 C 1.203125 -1.117188 3.042969 0.175781 5.34375 0.175781 Z M 5.34375 0.175781 "/></g></g></g><g fill="rgb(100%, 100%, 100%)" fill-opacity="1"><g transform="translate(41.714971, 122.388849)"><g><path d="M 9.328125 0 L 12.414062 0 L 7.683594 -13.136719 L 4.445312 -13.136719 L -0.285156 0 L 2.800781 0 L 3.613281 -2.472656 L 8.515625 -2.472656 Z M 4.378906 -4.882812 L 6.066406 -10.09375 L 7.75 -4.882812 Z M 4.378906 -4.882812 "/></g></g></g><g fill="rgb(100%, 100%, 100%)" fill-opacity="1"><g transform="translate(53.493113, 122.388849)"><g><path d="M 10.730469 -13.136719 L 10.730469 -4.445312 L 4.269531 -13.136719 L 1.292969 -13.136719 L 1.292969 0 L 4.183594 0 L 4.183594 -8.714844 L 10.617188 0 L 13.597656 0 L 13.597656 -13.136719 Z M 10.730469 -13.136719 "/></g></g></g><g fill="rgb(100%, 100%, 100%)" fill-opacity="1"><g transform="translate(68.051627, 122.388849)"><g><path d="M 9.328125 0 L 12.414062 0 L 7.683594 -13.136719 L 4.445312 -13.136719 L -0.285156 0 L 2.800781 0 L 3.613281 -2.472656 L 8.515625 -2.472656 Z M 4.378906 -4.882812 L 6.066406 -10.09375 L 7.75 -4.882812 Z M 4.378906 -4.882812 "/></g></g></g><g fill="rgb(100%, 100%, 100%)" fill-opacity="1"><g transform="translate(79.829773, 122.388849)"><g><path d="M 4.183594 -2.5625 L 4.183594 -13.136719 L 1.292969 -13.136719 L 1.292969 0 L 8.539062 0 L 8.539062 -2.5625 Z M 4.183594 -2.5625 "/></g></g></g><g fill="rgb(100%, 100%, 100%)" fill-opacity="1"><g transform="translate(88.061306, 122.388849)"><g><path d="M 11.800781 -13.136719 L 8.582031 -13.136719 L 5.78125 -8.691406 L 2.976562 -13.136719 L -0.285156 -13.136719 L 4.335938 -6.175781 L 4.335938 0 L 7.226562 0 L 7.226562 -6.195312 Z M 11.800781 -13.136719 "/></g></g></g><g fill="rgb(100%, 100%, 100%)" fill-opacity="1"><g transform="translate(99.248353, 122.388849)"><g><path d="M 10.574219 -13.136719 L 1.050781 -13.136719 L 1.050781 -10.574219 L 6.085938 -10.574219 L 0.503906 0 L 10.574219 0 L 10.574219 -2.5625 L 5.035156 -2.5625 Z M 10.574219 -13.136719 "/></g></g></g><g fill="rgb(100%, 100%, 100%)" fill-opacity="1"><g transform="translate(110.107008, 122.388849)"><g><path d="M 9.304688 -10.597656 L 9.304688 -13.136719 L 1.402344 -13.136719 L 1.402344 0 L 9.304688 0 L 9.304688 -2.539062 L 4.292969 -2.539062 L 4.292969 -5.296875 L 8.582031 -5.296875 L 8.582031 -7.839844 L 4.292969 -7.839844 L 4.292969 -10.597656 Z M 9.304688 -10.597656 "/></g></g></g><g fill="rgb(100%, 100%, 100%)" fill-opacity="1"><g transform="translate(119.958602, 122.388849)"><g><path d="M 8.144531 -5.40625 C 9.699219 -5.867188 10.792969 -7.3125 10.792969 -9.109375 C 10.792969 -11.339844 9.128906 -13.136719 6.875 -13.136719 L 1.292969 -13.136719 L 1.292969 0 L 4.183594 0 L 4.183594 -5.078125 L 5.34375 -5.078125 L 8.582031 0 L 11.824219 0 Z M 6.4375 -7.464844 L 4.183594 -7.464844 L 4.183594 -10.574219 L 6.4375 -10.574219 C 7.355469 -10.574219 8.035156 -9.917969 8.035156 -9.019531 C 8.035156 -8.101562 7.355469 -7.464844 6.4375 -7.464844 Z M 6.4375 -7.464844 "/></g></g></g></svg>